<svg width="41" height="41" viewBox="0 0 41 41" fill="none" xmlns="http://www.w3.org/2000/svg">
<g clip-path="url(#clip0_1911_1803)">
<path d="M11.4959 16.0741H11.8299C13.1156 16.0741 14.1676 17.1261 14.1676 18.4119V30.1005C14.1676 31.3863 13.1156 32.4383 11.8299 32.4383H11.4959C10.2102 32.4383 9.1582 31.3863 9.1582 30.1005V18.4119C9.1582 17.1261 10.2102 16.0741 11.4959 16.0741ZM20.8469 9.06094C22.1326 9.06094 23.1846 10.1129 23.1846 11.3987V30.1005C23.1846 31.3863 22.1326 32.4383 20.8469 32.4383C19.5611 32.4383 18.5091 31.3863 18.5091 30.1005V11.3987C18.5091 10.1129 19.5611 9.06094 20.8469 9.06094ZM30.1978 22.4194C31.4835 22.4194 32.5355 23.4714 32.5355 24.7571V30.1005C32.5355 31.3863 31.4835 32.4383 30.1978 32.4383C28.912 32.4383 27.8601 31.3863 27.8601 30.1005V24.7571C27.8601 23.4714 28.912 22.4194 30.1978 22.4194Z" fill="#6D7C43"/>
</g>
<defs>
<clipPath id="clip0_1911_1803">
<rect width="40.0754" height="40.0754" fill="white" transform="translate(0.810547 0.711853)"/>
</clipPath>
</defs>
</svg>
