<svg width="13" height="12" viewBox="0 0 13 12" fill="none" xmlns="http://www.w3.org/2000/svg">
<path fill-rule="evenodd" clip-rule="evenodd" d="M6.5 0.125C8.12 0.125 9.61625 0.415625 10.7313 0.91125C11.2875 1.15875 11.7775 1.46938 12.1356 1.84625C12.4975 2.225 12.75 2.70125 12.75 3.25V5.75C12.75 6.29875 12.4975 6.77438 12.1356 7.15375C11.7775 7.53063 11.2881 7.84125 10.7313 8.08875C9.61625 8.58438 8.12 8.875 6.5 8.875C4.88 8.875 3.38375 8.58438 2.26875 8.08875C1.7125 7.84125 1.2225 7.53063 0.864375 7.15375C0.5025 6.775 0.25 6.29875 0.25 5.75V3.25C0.25 2.70125 0.5025 2.22563 0.864375 1.84625C1.2225 1.46938 1.71188 1.15875 2.26875 0.91125C3.38375 0.415625 4.88 0.125 6.5 0.125ZM11.5 5.175C11.2656 5.32875 11.0063 5.46625 10.7313 5.58875C9.61625 6.08438 8.12 6.375 6.5 6.375C4.88 6.375 3.38375 6.08438 2.26875 5.58875C2.00217 5.47096 1.74514 5.33262 1.5 5.175V5.75C1.5 5.89188 1.5625 6.07375 1.77 6.2925C1.98063 6.51375 2.315 6.74188 2.77625 6.94688C3.6975 7.35625 5.01375 7.625 6.5 7.625C7.98625 7.625 9.3025 7.35625 10.2238 6.94688C10.685 6.74188 11.0194 6.51375 11.23 6.2925C11.4381 6.07375 11.5 5.89188 11.5 5.75V5.175ZM6.5 1.375C5.01313 1.375 3.6975 1.64375 2.77625 2.05313C2.315 2.25813 1.98063 2.48625 1.77 2.7075C1.56188 2.92625 1.5 3.10813 1.5 3.25C1.5 3.39188 1.5625 3.57375 1.77 3.7925C1.98063 4.01375 2.315 4.24188 2.77625 4.44688C3.6975 4.85625 5.01375 5.125 6.5 5.125C7.98625 5.125 9.3025 4.85625 10.2238 4.44688C10.685 4.24188 11.0194 4.01375 11.23 3.7925C11.4381 3.57375 11.5 3.39188 11.5 3.25C11.5 3.10813 11.4375 2.92625 11.23 2.7075C11.0194 2.48625 10.685 2.25813 10.2238 2.05313C9.3025 1.64438 7.98625 1.375 6.5 1.375Z" fill="#6D7C43"/>
</svg>
