<svg width="33" height="33" viewBox="0 0 33 33" fill="none" xmlns="http://www.w3.org/2000/svg">
<path d="M4.10742 11.182L13.3995 17.3776C14.6815 18.2309 15.3219 18.6583 16.0141 18.8247C16.6258 18.9712 17.2635 18.9712 17.8752 18.8247C18.5675 18.6583 19.2078 18.2309 20.4885 17.3776L29.7806 11.182M10.4988 26.8721H23.3932C25.6297 26.8721 26.748 26.8721 27.6027 26.4368C28.3536 26.0536 28.964 25.4427 29.3466 24.6915C29.7832 23.8368 29.7832 22.7186 29.7832 20.4821V13.2933C29.7832 11.0568 29.7832 9.93857 29.3479 9.08391C28.965 8.33247 28.3541 7.72153 27.6027 7.33864C26.748 6.90332 25.6297 6.90332 23.3932 6.90332H10.4974C8.26092 6.90332 7.14267 6.90332 6.28801 7.33864C5.53706 7.72175 4.92661 8.33267 4.54407 9.08391C4.10742 9.93857 4.10742 11.0568 4.10742 13.2933V20.4821C4.10742 22.7186 4.10742 23.8368 4.54274 24.6915C4.92563 25.4429 5.53657 26.0539 6.28801 26.4368C7.14267 26.8721 8.26225 26.8721 10.4988 26.8721Z" stroke="#029094" stroke-width="2.21875" stroke-linecap="round" stroke-linejoin="round"/>
</svg>
