<svg width="34" height="34" viewBox="0 0 34 34" fill="none" xmlns="http://www.w3.org/2000/svg">
<path opacity="0.5" fill-rule="evenodd" clip-rule="evenodd" d="M19.834 31.1667H14.1673C8.82507 31.1667 6.15323 31.1667 4.49432 29.5063C2.8354 27.846 2.83398 25.1756 2.83398 19.8333V14.1667C2.83398 8.82442 2.83398 6.15259 4.49432 4.49367C6.15465 2.83475 8.83923 2.83334 14.2098 2.83334C15.0683 2.83334 15.7554 2.83334 16.3348 2.85742C16.3159 2.97075 16.3065 3.08597 16.3065 3.20309L16.2923 7.21792C16.2923 8.772 16.2923 10.1462 16.4411 11.2526C16.6026 12.4525 16.9723 13.6524 17.9527 14.6328C18.9302 15.6103 20.1315 15.9814 21.3314 16.1429C22.4378 16.2917 23.812 16.2917 25.3661 16.2917H31.1064C31.1673 17.0482 31.1673 17.9775 31.1673 19.2143V19.8333C31.1673 25.1756 31.1673 27.8474 29.507 29.5063C27.8467 31.1653 25.1762 31.1667 19.834 31.1667Z" fill="#6D7C43"/>
<path d="M16.3052 3.20167L16.291 7.21792C16.291 8.772 16.291 10.1447 16.4398 11.2526C16.6013 12.4525 16.971 13.6524 17.9513 14.6313C18.9288 15.6102 20.1302 15.9814 21.3301 16.1429C22.4365 16.2917 23.8107 16.2917 25.3648 16.2917H31.1051C31.124 16.5108 31.1372 16.7469 31.1448 17H31.166C31.166 16.6203 31.166 16.4305 31.1518 16.2067C31.0443 14.8601 30.5754 13.5676 29.7947 12.4652C29.6615 12.2839 29.5708 12.1762 29.3909 11.9595C28.2675 10.6165 26.7885 8.942 25.4993 7.79167C24.3518 6.766 22.7779 5.64542 21.4052 4.73025C20.2265 3.94258 19.6372 3.54875 18.8283 3.25692C18.5926 3.17369 18.3535 3.1009 18.1114 3.03875C17.5674 2.90417 17.0376 2.85742 16.291 2.84042L16.3052 3.20167Z" fill="#6D7C43"/>
</svg>
