<svg width="33" height="32" viewBox="0 0 33 32" fill="none" xmlns="http://www.w3.org/2000/svg">
<path d="M16.3544 23.1888C15.5511 23.189 14.7773 22.8866 14.187 22.3419C13.5967 21.7971 13.2332 21.0501 13.169 20.2494C11.0382 19.4952 9.24238 18.0125 8.09853 16.0629C6.95468 14.1134 6.53633 11.8225 6.91734 9.59451C7.29835 7.36654 8.45422 5.34481 10.1809 3.88619C11.9076 2.42757 14.0941 1.62585 16.3544 1.62256C18.7584 1.62221 21.0749 2.52529 22.8443 4.15272C24.6138 5.78015 25.7071 8.0131 25.9074 10.4088C25.9141 10.5127 25.8991 10.6169 25.8633 10.7147C25.8276 10.8125 25.7719 10.9018 25.6998 10.9769C25.6277 11.052 25.5407 11.1113 25.4445 11.151C25.3482 11.1907 25.2447 11.21 25.1406 11.2076C24.9266 11.2022 24.7223 11.1175 24.5673 10.9699C24.4123 10.8222 24.3177 10.6223 24.3019 10.4088C24.1597 8.99636 23.6435 7.64734 22.8066 6.50064C21.9698 5.35394 20.8424 4.451 19.5406 3.88476C18.2389 3.31852 16.8097 3.10945 15.4002 3.27908C13.9908 3.4487 12.6521 3.99089 11.5218 4.84983C10.3915 5.70876 9.5106 6.8534 8.96969 8.16592C8.42879 9.47843 8.24746 10.9114 8.44437 12.3173C8.64127 13.7231 9.20931 15.0511 10.09 16.1646C10.9707 17.278 12.1322 18.1365 13.4549 18.6519C13.6956 18.1318 14.0717 17.6861 14.5439 17.3613C15.016 17.0366 15.5669 16.8448 16.1386 16.8061C16.7104 16.7674 17.282 16.8832 17.7936 17.1413C18.3052 17.3994 18.738 17.7904 19.0466 18.2733C19.3552 18.7561 19.5283 19.3131 19.5476 19.8859C19.567 20.4586 19.432 21.026 19.1567 21.5286C18.8814 22.0312 18.476 22.4505 17.983 22.7426C17.4899 23.0347 16.9274 23.1888 16.3544 23.1888ZM8.38125 19.1951H8.52662C9.14965 19.8037 9.84137 20.3405 10.5906 20.7926H8.38125C7.48505 20.7926 6.76937 21.5066 6.76937 22.3901C6.76937 24.4812 7.76302 26.0387 9.44199 27.1075C11.1513 28.1986 13.5827 28.7801 16.3544 28.7801C19.126 28.7801 21.5574 28.1986 23.2668 27.1075C24.9441 26.0371 25.9394 24.4828 25.9394 22.3901C25.9394 21.9664 25.7711 21.56 25.4715 21.2605C25.1719 20.9609 24.7656 20.7926 24.3419 20.7926H21.0814C21.1708 20.2638 21.1708 19.7238 21.0814 19.1951H24.3419C25.1892 19.1951 26.0019 19.5317 26.6011 20.1309C27.2003 20.73 27.5369 21.5427 27.5369 22.3901C27.5369 25.0914 26.2062 27.1282 24.1262 28.4558C22.0782 29.7609 19.3177 30.3776 16.3544 30.3776C13.391 30.3776 10.6305 29.7609 8.58254 28.4558C6.50259 27.1298 5.17188 25.0898 5.17188 22.3901C5.17188 20.612 6.61442 19.1951 8.38125 19.1951ZM22.7444 11.2076C22.7447 12.2885 22.4709 13.3518 21.9484 14.2981C21.4259 15.2444 20.672 16.0427 19.757 16.6183C19.3306 16.1883 18.8264 15.843 18.2714 15.6007C19.2805 15.1603 20.1072 14.3858 20.6124 13.4076C21.1177 12.4293 21.2707 11.3069 21.0458 10.2291C20.8208 9.15133 20.2316 8.18384 19.3772 7.48937C18.5229 6.7949 17.4554 6.41578 16.3544 6.41578C15.2533 6.41578 14.1859 6.7949 13.3315 7.48937C12.4771 8.18384 11.8879 9.15133 11.663 10.2291C11.438 11.3069 11.591 12.4293 12.0963 13.4076C12.6016 14.3858 13.4283 15.1603 14.4374 15.6007C13.8782 15.8451 13.375 16.1918 12.9517 16.6183C11.7383 15.8552 10.8167 14.7063 10.335 13.3562C10.0893 12.6665 9.96391 11.9397 9.96437 11.2076C9.96437 9.51283 10.6376 7.8875 11.836 6.68915C13.0343 5.49079 14.6596 4.81756 16.3544 4.81756C18.0491 4.81756 19.6744 5.49079 20.8728 6.68915C22.0711 7.8875 22.7444 9.51283 22.7444 11.2076Z" fill="#413DFB"/>
</svg>
