<svg width="761" height="399" viewBox="0 0 761 399" fill="none" xmlns="http://www.w3.org/2000/svg">
<rect width="761" height="399" rx="10" fill="white"/>
<path d="M36.9118 48.162C33.5458 48.162 31.8358 45.498 31.8358 41.952C31.8358 38.424 33.5458 35.76 36.9118 35.76C40.2778 35.76 41.9698 38.424 41.9698 41.952C41.9698 45.498 40.2778 48.162 36.9118 48.162ZM36.9118 46.218C39.0718 46.218 39.8458 44.49 39.8458 41.952C39.8458 39.432 39.0718 37.686 36.9118 37.686C34.7698 37.686 33.9778 39.432 33.9778 41.952C33.9778 44.49 34.7698 46.218 36.9118 46.218ZM48.7789 48H46.6369L51.3529 35.94H53.6929L58.4089 48H56.1769L55.0249 44.958H49.9309L48.7789 48ZM51.8389 39.936L50.5969 43.194H54.3589L53.1349 39.936L52.4869 37.758L51.8389 39.936ZM61.578 51.348H59.562V39.234H61.578V41.574C61.866 40.206 62.64 39.036 64.386 39.036C66.51 39.036 67.878 40.782 67.878 43.608C67.878 46.434 66.51 48.18 64.35 48.18C62.604 48.18 61.866 47.01 61.578 45.66V51.348ZM61.578 44.148C61.578 45.588 62.172 46.542 63.594 46.542C64.854 46.542 65.808 45.588 65.808 43.608C65.808 41.628 64.854 40.674 63.594 40.674C62.172 40.674 61.578 41.628 61.578 43.068V44.148ZM71.5624 51.348H69.5464V39.234H71.5624V41.574C71.8504 40.206 72.6244 39.036 74.3704 39.036C76.4944 39.036 77.8624 40.782 77.8624 43.608C77.8624 46.434 76.4944 48.18 74.3344 48.18C72.5884 48.18 71.8504 47.01 71.5624 45.66V51.348ZM71.5624 44.148C71.5624 45.588 72.1564 46.542 73.5784 46.542C74.8384 46.542 75.7924 45.588 75.7924 43.608C75.7924 41.628 74.8384 40.674 73.5784 40.674C72.1564 40.674 71.5624 41.628 71.5624 43.068V44.148ZM83.3614 48.18C80.8414 48.18 79.1134 46.344 79.1134 43.626C79.1134 40.89 80.8414 39.054 83.3614 39.054C85.9174 39.054 87.6454 40.89 87.6454 43.626C87.6454 46.344 85.9174 48.18 83.3614 48.18ZM83.3794 46.506C84.6934 46.506 85.5934 45.642 85.5934 43.626C85.5934 41.592 84.6934 40.728 83.3794 40.728C82.0834 40.728 81.1834 41.592 81.1834 43.626C81.1834 45.642 82.0834 46.506 83.3794 46.506ZM91.4257 37.992H89.4097V35.94H91.4257V37.992ZM91.4257 48H89.4097V39.234H91.4257V48ZM95.5741 48H93.5581V39.234H95.5741V41.628C95.8981 40.242 96.7981 39.054 98.5441 39.054C100.254 39.054 101.298 40.08 101.298 41.898V48H99.2641V42.51C99.2641 41.43 98.9041 40.692 97.5541 40.692C96.0781 40.692 95.5741 41.646 95.5741 43.086V48ZM106.306 48.198C104.65 48.198 103.696 47.154 103.696 45.606V40.8H102.328V39.234H103.696V38.172L105.712 36.894V39.234H108.394V40.8H105.712V45.12C105.712 46.074 106.162 46.308 106.756 46.308C107.44 46.308 107.944 45.75 108.196 45.246L108.826 47.046C108.448 47.604 107.584 48.198 106.306 48.198ZM111.816 48H109.8V39.234H111.816V41.628C112.14 40.242 113.004 39.054 114.66 39.054C116.262 39.054 117.126 39.99 117.216 41.646C117.522 40.26 118.386 39.054 120.06 39.054C121.734 39.054 122.616 40.08 122.616 41.898V48H120.6V42.51C120.6 41.304 120.096 40.692 118.908 40.692C117.72 40.692 117.216 41.646 117.216 43.086V48H115.2V42.51C115.2 41.304 114.696 40.692 113.508 40.692C112.32 40.692 111.816 41.646 111.816 43.086V48ZM128.542 48.18C125.932 48.18 124.222 46.362 124.222 43.626C124.222 40.872 125.932 39.054 128.398 39.054C131.026 39.054 132.484 40.8 132.484 43.23C132.484 43.554 132.448 43.932 132.412 44.112H126.148C126.256 45.678 127.174 46.524 128.56 46.524C130.09 46.524 130.774 45.732 131.098 44.994L132.34 46.29C131.674 47.298 130.486 48.18 128.542 48.18ZM128.398 40.674C127.156 40.674 126.328 41.394 126.166 42.816H130.666C130.522 41.43 129.73 40.674 128.398 40.674ZM136.267 48H134.251V39.234H136.267V41.628C136.591 40.242 137.491 39.054 139.237 39.054C140.947 39.054 141.991 40.08 141.991 41.898V48H139.957V42.51C139.957 41.43 139.597 40.692 138.247 40.692C136.771 40.692 136.267 41.646 136.267 43.086V48ZM147 48.198C145.344 48.198 144.39 47.154 144.39 45.606V40.8H143.022V39.234H144.39V38.172L146.406 36.894V39.234H149.088V40.8H146.406V45.12C146.406 46.074 146.856 46.308 147.45 46.308C148.134 46.308 148.638 45.75 148.89 45.246L149.52 47.046C149.142 47.604 148.278 48.198 147 48.198ZM154.147 48.18C152.275 48.18 150.565 47.424 149.899 46.038L151.087 44.778C151.573 45.66 152.653 46.56 154.219 46.56C155.083 46.56 155.641 46.254 155.641 45.624C155.641 44.976 154.975 44.76 154.003 44.526L152.833 44.238C151.447 43.914 150.169 43.302 150.169 41.7C150.169 40.062 151.483 39.072 153.499 39.072C155.371 39.072 156.685 39.972 157.225 40.962L156.037 42.222C155.425 41.25 154.489 40.674 153.355 40.674C152.581 40.674 152.059 40.998 152.059 41.592C152.059 42.222 152.527 42.456 153.715 42.762L154.777 43.032C156.739 43.536 157.459 44.328 157.459 45.588C157.459 47.316 156.001 48.18 154.147 48.18Z" fill="black"/>
<circle cx="35" cy="69" r="4" fill="#6D7C43"/>
<path d="M44.0979 72H43.3146L46.3681 64.3946H47.1287L50.1822 72H49.3535L48.4341 69.6616H45.0173L44.0979 72ZM46.3341 66.3357L45.2784 69.0032H48.173L47.1287 66.3357L46.7314 65.1551L46.3341 66.3357ZM52.574 72.1249C51.7453 72.1249 51.0983 71.6027 51.0983 70.6151V67.1303H50.2129V66.5514H51.0983V65.7681L51.8361 65.2119V66.5514H53.6637V67.1303H51.8361V70.4108C51.8361 71.1941 52.2448 71.4097 52.7215 71.4097C53.2096 71.4097 53.6069 71.0578 53.7886 70.6719L54.0496 71.3984C53.8113 71.7957 53.2777 72.1249 52.574 72.1249ZM56.343 72.1249C55.5143 72.1249 54.8673 71.6027 54.8673 70.6151V67.1303H53.9819V66.5514H54.8673V65.7681L55.6051 65.2119V66.5514H57.4327V67.1303H55.6051V70.4108C55.6051 71.1941 56.0138 71.4097 56.4905 71.4097C56.9786 71.4097 57.3759 71.0578 57.5576 70.6719L57.8186 71.3984C57.5803 71.7957 57.0467 72.1249 56.343 72.1249ZM60.689 72.1135C59.1679 72.1135 58.1123 71.0805 58.1123 69.2757C58.1123 67.5049 59.1225 66.4378 60.5982 66.4378C62.0852 66.4378 63.0161 67.4368 63.0161 69.0827C63.0161 69.2189 62.9933 69.3551 62.982 69.4459H58.8274C58.8728 70.8081 59.6106 71.4892 60.689 71.4892C61.7901 71.4892 62.2669 70.8876 62.5052 70.3541L62.9593 70.8876C62.5733 71.5573 61.8469 72.1135 60.689 72.1135ZM60.5982 67.0508C59.5993 67.0508 58.9409 67.6751 58.8388 68.9011H62.335C62.2669 67.6751 61.5971 67.0508 60.5982 67.0508ZM65.0761 72H64.327V66.5514H65.0761V68.0724C65.2691 67.187 65.8934 66.4378 66.9832 66.4378C68.0615 66.4378 68.788 67.0735 68.788 68.3222V72H68.0388V68.4924C68.0388 67.607 67.6302 67.0622 66.688 67.0622C65.5415 67.0622 65.0761 67.9022 65.0761 68.8443V72ZM72.2655 72.1249C70.8465 72.1249 69.9952 71.0011 69.9952 69.2757C69.9952 67.5616 70.8465 66.4378 72.2655 66.4378C73.3438 66.4378 73.9227 67.187 74.093 68.0497V64.3946H74.8309V72H74.093V70.513C73.9227 71.3757 73.3438 72.1249 72.2655 72.1249ZM70.7557 69.2757C70.7557 70.8081 71.5049 71.5005 72.4925 71.5005C73.5936 71.5005 74.093 70.6946 74.093 69.7865V68.7649C74.093 67.8568 73.5936 67.0622 72.4925 67.0622C71.5049 67.0622 70.7557 67.7546 70.7557 69.2757ZM78.7026 72.1135C77.1816 72.1135 76.1259 71.0805 76.1259 69.2757C76.1259 67.5049 77.1362 66.4378 78.6118 66.4378C80.0989 66.4378 81.0297 67.4368 81.0297 69.0827C81.0297 69.2189 81.007 69.3551 80.9956 69.4459H76.841C76.8864 70.8081 77.6243 71.4892 78.7026 71.4892C79.8037 71.4892 80.2805 70.8876 80.5189 70.3541L80.9729 70.8876C80.587 71.5573 79.8605 72.1135 78.7026 72.1135ZM78.6118 67.0508C77.6129 67.0508 76.9545 67.6751 76.8524 68.9011H80.3486C80.2805 67.6751 79.6108 67.0508 78.6118 67.0508ZM84.4039 72.1249C82.9849 72.1249 82.1336 71.0011 82.1336 69.2757C82.1336 67.5616 82.9849 66.4378 84.4039 66.4378C85.4822 66.4378 86.0612 67.187 86.2314 68.0497V64.3946H86.9693V72H86.2314V70.513C86.0612 71.3757 85.4822 72.1249 84.4039 72.1249ZM82.8941 69.2757C82.8941 70.8081 83.6433 71.5005 84.6309 71.5005C85.732 71.5005 86.2314 70.6946 86.2314 69.7865V68.7649C86.2314 67.8568 85.732 67.0622 84.6309 67.0622C83.6433 67.0622 82.8941 67.7546 82.8941 69.2757Z" fill="black" fill-opacity="0.6"/>
<circle cx="122" cy="69" r="4" fill="#041827" fill-opacity="0.1"/>
<path d="M131.697 72H130.948V64.3946H131.765L133.99 68.5378L134.648 69.9114L135.307 68.5378L137.531 64.3946H138.349V72H137.611V67.1416L137.679 65.4503L136.952 67.0168L135.011 70.6038H134.285L132.344 67.0168L131.606 65.4503L131.697 67.1416V72ZM140.795 65.5751H140.046V64.3946H140.795V65.5751ZM140.795 72H140.046V66.5514H140.795V72ZM144.474 72.1135C143.361 72.1135 142.317 71.6141 141.988 70.547L142.544 70.127C142.714 70.8649 143.395 71.4778 144.496 71.4778C145.223 71.4778 145.7 71.1827 145.7 70.6151C145.7 70.0476 145.211 69.8432 144.474 69.673L143.736 69.5027C142.953 69.3097 142.147 68.9465 142.147 67.9703C142.147 67.0281 142.896 66.4378 144.02 66.4378C145.177 66.4378 145.938 67.0168 146.21 67.7886L145.643 68.2086C145.393 67.4708 144.826 67.0622 143.974 67.0622C143.316 67.0622 142.85 67.3686 142.85 67.9362C142.85 68.5038 143.259 68.7081 144.054 68.9011L144.78 69.0827C145.915 69.3665 146.369 69.8319 146.369 70.6038C146.369 71.6481 145.484 72.1135 144.474 72.1135ZM149.584 72.1135C148.472 72.1135 147.427 71.6141 147.098 70.547L147.654 70.127C147.824 70.8649 148.506 71.4778 149.607 71.4778C150.333 71.4778 150.81 71.1827 150.81 70.6151C150.81 70.0476 150.322 69.8432 149.584 69.673L148.846 69.5027C148.063 69.3097 147.257 68.9465 147.257 67.9703C147.257 67.0281 148.006 66.4378 149.13 66.4378C150.288 66.4378 151.048 67.0168 151.321 67.7886L150.753 68.2086C150.503 67.4708 149.936 67.0622 149.084 67.0622C148.426 67.0622 147.961 67.3686 147.961 67.9362C147.961 68.5038 148.369 68.7081 149.164 68.9011L149.89 69.0827C151.026 69.3665 151.48 69.8319 151.48 70.6038C151.48 71.6481 150.594 72.1135 149.584 72.1135ZM154.898 72.1135C153.377 72.1135 152.322 71.0805 152.322 69.2757C152.322 67.5049 153.332 66.4378 154.808 66.4378C156.295 66.4378 157.225 67.4368 157.225 69.0827C157.225 69.2189 157.203 69.3551 157.191 69.4459H153.037C153.082 70.8081 153.82 71.4892 154.898 71.4892C155.999 71.4892 156.476 70.8876 156.715 70.3541L157.169 70.8876C156.783 71.5573 156.056 72.1135 154.898 72.1135ZM154.808 67.0508C153.809 67.0508 153.15 67.6751 153.048 68.9011H156.544C156.476 67.6751 155.806 67.0508 154.808 67.0508ZM160.6 72.1249C159.181 72.1249 158.329 71.0011 158.329 69.2757C158.329 67.5616 159.181 66.4378 160.6 66.4378C161.678 66.4378 162.257 67.187 162.427 68.0497V64.3946H163.165V72H162.427V70.513C162.257 71.3757 161.678 72.1249 160.6 72.1249ZM159.09 69.2757C159.09 70.8081 159.839 71.5005 160.827 71.5005C161.928 71.5005 162.427 70.6946 162.427 69.7865V68.7649C162.427 67.8568 161.928 67.0622 160.827 67.0622C159.839 67.0622 159.09 67.7546 159.09 69.2757Z" fill="black" fill-opacity="0.6"/>
<circle cx="198" cy="69" r="4" fill="#FF2626"/>
<path d="M210.133 72.0908C207.92 72.0908 206.66 70.4222 206.66 68.1859C206.66 65.9497 207.92 64.2811 210.133 64.2811C211.881 64.2811 212.971 65.2686 213.414 66.767L212.755 67.2097C212.472 65.893 211.688 64.9735 210.145 64.9735C208.351 64.9735 207.443 66.313 207.443 68.1859C207.443 70.0589 208.351 71.3984 210.145 71.3984C211.688 71.3984 212.472 70.4789 212.755 69.1622L213.414 69.6049C212.971 71.1032 211.881 72.0908 210.133 72.0908ZM215.835 72.1135C214.939 72.1135 214.428 71.6254 214.428 70.8989C214.428 70.1838 214.961 69.7297 215.722 69.3892L217.788 68.447V68.4016C217.788 67.5843 217.402 67.1076 216.517 67.1076C215.699 67.1076 215.109 67.573 214.825 68.1746L214.303 67.6524C214.644 67.0849 215.438 66.4378 216.596 66.4378C217.867 66.4378 218.526 67.1757 218.526 68.3903V70.9443C218.526 71.2281 218.651 71.3303 218.912 71.3303H219.23V72H218.719C218.174 72 217.811 71.7616 217.811 71.0692V70.4903C217.629 71.2735 216.925 72.1135 215.835 72.1135ZM215.177 70.7968C215.177 71.2508 215.518 71.4892 216.051 71.4892C217.061 71.4892 217.811 70.7059 217.811 69.9681V69.0032L216.04 69.8432C215.45 70.1157 215.177 70.3881 215.177 70.7968ZM221.182 72H220.433V66.5514H221.182V68.0724C221.375 67.187 222 66.4378 223.089 66.4378C224.168 66.4378 224.894 67.0735 224.894 68.3222V72H224.145V68.4924C224.145 67.607 223.736 67.0622 222.794 67.0622C221.648 67.0622 221.182 67.9022 221.182 68.8443V72ZM228.644 72.1135C227.112 72.1135 226.101 71.0465 226.101 69.2757C226.101 67.5049 227.112 66.4378 228.655 66.4378C230.006 66.4378 230.857 67.2324 231.073 68.3335L230.358 68.64C230.245 67.7205 229.7 67.0508 228.655 67.0508C227.577 67.0508 226.862 67.8227 226.862 69.2757C226.862 70.7173 227.577 71.4892 228.655 71.4892C229.7 71.4892 230.245 70.8308 230.358 69.9114L231.073 70.2178C230.857 71.3189 230.006 72.1135 228.644 72.1135ZM234.565 72.1135C233.044 72.1135 231.988 71.0805 231.988 69.2757C231.988 67.5049 232.998 66.4378 234.474 66.4378C235.961 66.4378 236.892 67.4368 236.892 69.0827C236.892 69.2189 236.869 69.3551 236.858 69.4459H232.703C232.749 70.8081 233.486 71.4892 234.565 71.4892C235.666 71.4892 236.143 70.8876 236.381 70.3541L236.835 70.8876C236.449 71.5573 235.723 72.1135 234.565 72.1135ZM234.474 67.0508C233.475 67.0508 232.817 67.6751 232.715 68.9011H236.211C236.143 67.6751 235.473 67.0508 234.474 67.0508ZM238.974 72H238.225V64.3946H238.974V72ZM242.846 72.1135C241.325 72.1135 240.269 71.0805 240.269 69.2757C240.269 67.5049 241.279 66.4378 242.755 66.4378C244.242 66.4378 245.173 67.4368 245.173 69.0827C245.173 69.2189 245.15 69.3551 245.139 69.4459H240.984C241.029 70.8081 241.767 71.4892 242.846 71.4892C243.947 71.4892 244.423 70.8876 244.662 70.3541L245.116 70.8876C244.73 71.5573 244.003 72.1135 242.846 72.1135ZM242.755 67.0508C241.756 67.0508 241.097 67.6751 240.995 68.9011H244.492C244.423 67.6751 243.754 67.0508 242.755 67.0508ZM248.547 72.1249C247.128 72.1249 246.277 71.0011 246.277 69.2757C246.277 67.5616 247.128 66.4378 248.547 66.4378C249.625 66.4378 250.204 67.187 250.374 68.0497V64.3946H251.112V72H250.374V70.513C250.204 71.3757 249.625 72.1249 248.547 72.1249ZM247.037 69.2757C247.037 70.8081 247.786 71.5005 248.774 71.5005C249.875 71.5005 250.374 70.6946 250.374 69.7865V68.7649C250.374 67.8568 249.875 67.0622 248.774 67.0622C247.786 67.0622 247.037 67.7546 247.037 69.2757Z" fill="black" fill-opacity="0.6"/>
<rect x="632.405" y="39.2975" width="96.1081" height="29.4054" rx="7.7027" stroke="black" stroke-opacity="0.1" stroke-width="0.810811"/>
<path d="M646.317 57H641.141V56.2281L643.627 53.7762C644.456 52.9589 645.103 52.2551 645.103 51.4151C645.103 50.8022 644.762 50.2346 643.9 50.2346C642.628 50.2346 641.913 51.0519 642.106 52.5616L641.187 51.9827C641.028 50.4843 642.22 49.2811 643.968 49.2811C645.455 49.2811 646.124 50.1778 646.124 51.347C646.124 52.5957 644.933 53.7308 644.24 54.3892L643.06 55.5016L642.242 56.1941L643.173 56.1259H646.317V57ZM650.307 57.1135C648.218 57.1135 647.242 55.3995 647.242 53.1859C647.242 50.9951 648.218 49.2811 650.307 49.2811C652.384 49.2811 653.36 50.9951 653.36 53.1859C653.36 55.3995 652.384 57.1135 650.307 57.1135ZM650.318 56.1714C651.816 56.1714 652.327 54.9341 652.327 53.1859C652.327 51.4605 651.816 50.2119 650.318 50.2119C648.808 50.2119 648.286 51.4605 648.286 53.1859C648.286 54.9341 648.808 56.1714 650.318 56.1714ZM659.675 57H654.499V56.2281L656.985 53.7762C657.814 52.9589 658.461 52.2551 658.461 51.4151C658.461 50.8022 658.12 50.2346 657.257 50.2346C655.986 50.2346 655.271 51.0519 655.464 52.5616L654.544 51.9827C654.386 50.4843 655.577 49.2811 657.326 49.2811C658.813 49.2811 659.482 50.1778 659.482 51.347C659.482 52.5957 658.29 53.7308 657.598 54.3892L656.417 55.5016L655.6 56.1941L656.531 56.1259H659.675V57ZM663.619 57.1135C661.973 57.1135 661.008 56.1373 660.759 54.9908L661.599 54.2416C661.826 55.3995 662.314 56.1714 663.744 56.1714C664.72 56.1714 665.276 55.7059 665.276 54.9341C665.276 54.0259 664.561 53.6173 663.506 53.6173H662.268V52.7659H663.517C664.47 52.7659 664.947 52.3573 664.947 51.5627C664.947 50.8362 664.516 50.2346 663.54 50.2346C662.563 50.2346 661.86 50.7908 661.723 51.8351L660.883 51.1314C661.201 50.0984 662.2 49.2811 663.562 49.2811C665.322 49.2811 665.98 50.3708 665.98 51.347C665.98 52.1303 665.401 52.9362 664.436 53.0724C665.821 53.1859 666.321 54.0486 666.321 55.0362C666.321 56.2735 665.276 57.1135 663.619 57.1135Z" fill="#6E6E6E"/>
<path d="M673.69 54.1054H671.011V53.413H673.69V54.1054Z" fill="#6E6E6E"/>
<path d="M683.832 57H678.655V56.2281L681.141 53.7762C681.97 52.9589 682.617 52.2551 682.617 51.4151C682.617 50.8022 682.277 50.2346 681.414 50.2346C680.143 50.2346 679.427 51.0519 679.62 52.5616L678.701 51.9827C678.542 50.4843 679.734 49.2811 681.482 49.2811C682.969 49.2811 683.639 50.1778 683.639 51.347C683.639 52.5957 682.447 53.7308 681.754 54.3892L680.574 55.5016L679.757 56.1941L680.687 56.1259H683.832V57ZM687.821 57.1135C685.732 57.1135 684.756 55.3995 684.756 53.1859C684.756 50.9951 685.732 49.2811 687.821 49.2811C689.898 49.2811 690.874 50.9951 690.874 53.1859C690.874 55.3995 689.898 57.1135 687.821 57.1135ZM687.832 56.1714C689.331 56.1714 689.841 54.9341 689.841 53.1859C689.841 51.4605 689.331 50.2119 687.832 50.2119C686.323 50.2119 685.8 51.4605 685.8 53.1859C685.8 54.9341 686.323 56.1714 687.832 56.1714ZM697.189 57H692.013V56.2281L694.499 53.7762C695.328 52.9589 695.975 52.2551 695.975 51.4151C695.975 50.8022 695.634 50.2346 694.772 50.2346C693.5 50.2346 692.785 51.0519 692.978 52.5616L692.059 51.9827C691.9 50.4843 693.092 49.2811 694.84 49.2811C696.327 49.2811 696.997 50.1778 696.997 51.347C696.997 52.5957 695.805 53.7308 695.112 54.3892L693.932 55.5016L693.114 56.1941L694.045 56.1259H697.189V57ZM702.771 57H701.784V55.1838H697.958V54.4119L701.784 49.3946H702.771V54.3097H704.133V55.1838H702.771V57ZM699.082 54.3097H701.784V50.8249L699.082 54.3097Z" fill="#6E6E6E"/>
<g clip-path="url(#clip0_581_703)">
<path fill-rule="evenodd" clip-rule="evenodd" d="M714.706 56.0038C714.605 56.1051 714.468 56.162 714.324 56.162C714.181 56.162 714.044 56.1051 713.942 56.0038L710.884 52.9459C710.833 52.8961 710.792 52.8364 710.763 52.7705C710.735 52.7045 710.72 52.6336 710.719 52.5618C710.719 52.4901 710.732 52.4189 710.76 52.3525C710.787 52.286 710.827 52.2257 710.878 52.1749C710.928 52.1242 710.989 52.084 711.055 52.0569C711.122 52.0297 711.193 52.016 711.265 52.0166C711.336 52.0172 711.407 52.0322 711.473 52.0605C711.539 52.0888 711.599 52.13 711.649 52.1816L714.324 54.8573L717 52.1816C717.102 52.0832 717.238 52.0287 717.38 52.0299C717.522 52.0311 717.658 52.088 717.758 52.1882C717.858 52.2884 717.915 52.424 717.916 52.5657C717.917 52.7075 717.863 52.844 717.764 52.9459L714.706 56.0038Z" fill="#6E6E6E"/>
</g>
<path d="M35.9322 114.14C34.2522 114.14 32.9782 113.202 32.5022 112.012L33.4822 110.976C33.8182 112.194 34.6582 112.978 35.9742 112.978C37.2622 112.978 37.9062 112.208 37.9062 110.99C37.9062 109.464 36.8702 108.89 35.8482 108.89C34.8262 108.89 34.1262 109.338 34.0702 109.968L34.0562 110.122L32.8522 109.996L33.1462 104.62H38.4802V105.768H34.3502L34.0982 109.366C34.3922 108.54 35.1342 107.882 36.3662 107.882C38.2282 107.882 39.1942 109.184 39.1942 110.99C39.1942 112.894 37.9762 114.14 35.9322 114.14ZM44.2407 114.14C41.6647 114.14 40.4607 112.026 40.4607 109.296C40.4607 106.594 41.6647 104.48 44.2407 104.48C46.8027 104.48 48.0067 106.594 48.0067 109.296C48.0067 112.026 46.8027 114.14 44.2407 114.14ZM44.2547 112.978C46.1027 112.978 46.7327 111.452 46.7327 109.296C46.7327 107.168 46.1027 105.628 44.2547 105.628C42.3927 105.628 41.7487 107.168 41.7487 109.296C41.7487 111.452 42.3927 112.978 44.2547 112.978Z" fill="black" fill-opacity="0.5"/>
<path d="M37.9199 165H36.7019V162.76H31.9839V161.808L36.7019 155.62H37.9199V161.682H39.5999V162.76H37.9199V165ZM33.3699 161.682H36.7019V157.384L33.3699 161.682ZM44.2271 165.14C41.6511 165.14 40.4471 163.026 40.4471 160.296C40.4471 157.594 41.6511 155.48 44.2271 155.48C46.7891 155.48 47.9931 157.594 47.9931 160.296C47.9931 163.026 46.7891 165.14 44.2271 165.14ZM44.2411 163.978C46.0891 163.978 46.7191 162.452 46.7191 160.296C46.7191 158.168 46.0891 156.628 44.2411 156.628C42.3791 156.628 41.7351 158.168 41.7351 160.296C41.7351 162.452 42.3791 163.978 44.2411 163.978Z" fill="black" fill-opacity="0.5"/>
<path d="M35.7765 216.14C33.7465 216.14 32.5565 214.936 32.2485 213.522L33.2845 212.598C33.5645 214.026 34.1665 214.978 35.9305 214.978C37.1345 214.978 37.8205 214.404 37.8205 213.452C37.8205 212.332 36.9385 211.828 35.6365 211.828H34.1105V210.778H35.6505C36.8265 210.778 37.4145 210.274 37.4145 209.294C37.4145 208.398 36.8825 207.656 35.6785 207.656C34.4745 207.656 33.6065 208.342 33.4385 209.63L32.4025 208.762C32.7945 207.488 34.0265 206.48 35.7065 206.48C37.8765 206.48 38.6885 207.824 38.6885 209.028C38.6885 209.994 37.9745 210.988 36.7845 211.156C38.4925 211.296 39.1085 212.36 39.1085 213.578C39.1085 215.104 37.8205 216.14 35.7765 216.14ZM44.1724 216.14C41.5964 216.14 40.3924 214.026 40.3924 211.296C40.3924 208.594 41.5964 206.48 44.1724 206.48C46.7344 206.48 47.9384 208.594 47.9384 211.296C47.9384 214.026 46.7344 216.14 44.1724 216.14ZM44.1864 214.978C46.0344 214.978 46.6644 213.452 46.6644 211.296C46.6644 209.168 46.0344 207.628 44.1864 207.628C42.3244 207.628 41.6804 209.168 41.6804 211.296C41.6804 213.452 42.3244 214.978 44.1864 214.978Z" fill="black" fill-opacity="0.5"/>
<path d="M38.5405 267H32.1565V266.048L35.2225 263.024C36.2445 262.016 37.0425 261.148 37.0425 260.112C37.0425 259.356 36.6225 258.656 35.5585 258.656C33.9905 258.656 33.1085 259.664 33.3465 261.526L32.2125 260.812C32.0165 258.964 33.4865 257.48 35.6425 257.48C37.4765 257.48 38.3025 258.586 38.3025 260.028C38.3025 261.568 36.8325 262.968 35.9785 263.78L34.5225 265.152L33.5145 266.006L34.6625 265.922H38.5405V267ZM43.4605 267.14C40.8845 267.14 39.6805 265.026 39.6805 262.296C39.6805 259.594 40.8845 257.48 43.4605 257.48C46.0225 257.48 47.2265 259.594 47.2265 262.296C47.2265 265.026 46.0225 267.14 43.4605 267.14ZM43.4745 265.978C45.3225 265.978 45.9525 264.452 45.9525 262.296C45.9525 260.168 45.3225 258.628 43.4745 258.628C41.6125 258.628 40.9685 260.168 40.9685 262.296C40.9685 264.452 41.6125 265.978 43.4745 265.978Z" fill="black" fill-opacity="0.5"/>
<path d="M34.7366 318H33.5186V310.3H31.8386V309.46C32.5946 309.46 33.2666 309.236 33.7146 308.62H34.7366V318ZM40.1763 318.14C37.6003 318.14 36.3963 316.026 36.3963 313.296C36.3963 310.594 37.6003 308.48 40.1763 308.48C42.7383 308.48 43.9423 310.594 43.9423 313.296C43.9423 316.026 42.7383 318.14 40.1763 318.14ZM40.1903 316.978C42.0383 316.978 42.6683 315.452 42.6683 313.296C42.6683 311.168 42.0383 309.628 40.1903 309.628C38.3283 309.628 37.6843 311.168 37.6843 313.296C37.6843 315.452 38.3283 316.978 40.1903 316.978Z" fill="black" fill-opacity="0.5"/>
<path d="M68.7998 364.14C66.8258 364.14 65.5798 362.852 65.2858 360.92L66.3778 360.206C66.5038 361.844 67.2318 362.978 68.8138 362.978C70.3958 362.978 70.8718 362.264 70.8718 360.122V354.62H72.0898V360.332C72.0898 363.076 71.1098 364.14 68.7998 364.14ZM75.5359 364.14C74.3879 364.14 73.7439 363.482 73.7439 362.586C73.7439 361.676 74.4299 361.102 75.3959 360.668L77.8459 359.576C77.8039 358.778 77.4259 358.19 76.3619 358.19C75.3959 358.19 74.7519 358.75 74.4019 359.492L73.5759 358.638C73.9819 357.938 74.9899 357.084 76.5019 357.084C78.1679 357.084 79.0639 358.078 79.0639 359.688V362.474C79.0639 362.796 79.1899 362.894 79.4419 362.894H79.8759V364H79.0919C78.3919 364 77.8879 363.664 77.8879 362.712V362.236C77.6639 363.132 76.9359 364.14 75.5359 364.14ZM74.9759 362.39C74.9759 362.852 75.2979 363.132 75.9279 363.132C77.0759 363.132 77.8879 362.376 77.8879 361.396V360.458L75.9139 361.382C75.2699 361.69 74.9759 361.97 74.9759 362.39ZM82.5043 364H81.2863V357.224H82.5043V359.03C82.7703 357.98 83.4983 357.084 84.8283 357.084C86.1583 357.084 86.9843 357.882 86.9843 359.324V364H85.7803V359.618C85.7803 358.736 85.4303 358.12 84.2823 358.12C82.9803 358.12 82.5043 359.03 82.5043 360.164V364Z" fill="black" fill-opacity="0.5"/>
<path d="M120.68 364H119.462V354.62H125.748V355.698H120.68V359.058H124.838V360.136H120.68V364ZM129.288 364.14C127.37 364.14 126.04 362.768 126.04 360.612C126.04 358.47 127.356 357.084 129.218 357.084C131.136 357.084 132.298 358.358 132.298 360.346C132.298 360.556 132.27 360.766 132.242 360.892H127.216C127.286 362.32 128.084 363.132 129.288 363.132C130.646 363.132 131.192 362.39 131.458 361.802L132.2 362.642C131.696 363.454 130.758 364.14 129.288 364.14ZM129.218 358.106C128.126 358.106 127.398 358.75 127.244 360.01H131.206C131.08 358.764 130.352 358.106 129.218 358.106ZM135.087 364H133.869V354.62H135.087V358.988C135.325 357.952 135.969 357.084 137.271 357.084C138.993 357.084 140.057 358.484 140.057 360.626C140.057 362.768 138.993 364.168 137.271 364.168C135.969 364.168 135.325 363.3 135.087 362.264V364ZM135.087 361.116C135.087 362.236 135.563 363.146 136.851 363.146C137.943 363.146 138.825 362.362 138.825 360.626C138.825 358.904 137.943 358.12 136.851 358.12C135.563 358.12 135.087 359.03 135.087 360.15V361.116Z" fill="black" fill-opacity="0.5"/>
<path d="M173.388 364H172.17V354.62H173.528L175.95 359.268L176.902 361.326L177.84 359.268L180.276 354.62H181.634V364H180.416V358.82L180.542 356.286L179.506 358.61L177.49 362.432H176.3L174.284 358.61L173.234 356.286L173.388 358.82V364ZM185.161 364.14C184.013 364.14 183.369 363.482 183.369 362.586C183.369 361.676 184.055 361.102 185.021 360.668L187.471 359.576C187.429 358.778 187.051 358.19 185.987 358.19C185.021 358.19 184.377 358.75 184.027 359.492L183.201 358.638C183.607 357.938 184.615 357.084 186.127 357.084C187.793 357.084 188.689 358.078 188.689 359.688V362.474C188.689 362.796 188.815 362.894 189.067 362.894H189.501V364H188.717C188.017 364 187.513 363.664 187.513 362.712V362.236C187.289 363.132 186.561 364.14 185.161 364.14ZM184.601 362.39C184.601 362.852 184.923 363.132 185.553 363.132C186.701 363.132 187.513 362.376 187.513 361.396V360.458L185.539 361.382C184.895 361.69 184.601 361.97 184.601 362.39ZM192.129 364H190.911V357.224H192.129V359.03C192.395 357.98 193.095 357.07 194.243 357.07C194.971 357.07 195.671 357.588 195.671 358.54C195.671 359.114 195.517 359.534 195.405 359.702H194.075C194.299 359.506 194.481 359.086 194.481 358.708C194.481 358.316 194.271 357.98 193.781 357.98C192.913 357.98 192.129 359.002 192.129 360.164V364Z" fill="black" fill-opacity="0.5"/>
<path d="M227.64 364H226.352L230.132 354.62H231.35L235.13 364H233.786L232.764 361.382H228.662L227.64 364ZM230.244 357.336L229.082 360.304H232.344L231.182 357.336L230.72 355.866L230.244 357.336ZM237.338 366.604H236.12V357.224H237.338V358.96C237.576 357.938 238.22 357.07 239.522 357.07C241.23 357.07 242.294 358.456 242.294 360.598C242.294 362.74 241.23 364.14 239.522 364.14C238.22 364.14 237.576 363.272 237.338 362.25V366.604ZM237.338 361.088C237.338 362.208 237.814 363.118 239.102 363.118C240.18 363.118 241.062 362.334 241.062 360.598C241.062 358.876 240.18 358.092 239.102 358.092C237.814 358.092 237.338 359.002 237.338 360.122V361.088ZM244.954 364H243.736V357.224H244.954V359.03C245.22 357.98 245.92 357.07 247.068 357.07C247.796 357.07 248.496 357.588 248.496 358.54C248.496 359.114 248.342 359.534 248.23 359.702H246.9C247.124 359.506 247.306 359.086 247.306 358.708C247.306 358.316 247.096 357.98 246.606 357.98C245.738 357.98 244.954 359.002 244.954 360.164V364Z" fill="black" fill-opacity="0.5"/>
<path d="M281.567 364H280.349V354.62H281.707L284.129 359.268L285.081 361.326L286.019 359.268L288.455 354.62H289.813V364H288.595V358.82L288.721 356.286L287.685 358.61L285.669 362.432H284.479L282.463 358.61L281.413 356.286L281.567 358.82V364ZM293.34 364.14C292.192 364.14 291.548 363.482 291.548 362.586C291.548 361.676 292.234 361.102 293.2 360.668L295.65 359.576C295.608 358.778 295.23 358.19 294.166 358.19C293.2 358.19 292.556 358.75 292.206 359.492L291.38 358.638C291.786 357.938 292.794 357.084 294.306 357.084C295.972 357.084 296.868 358.078 296.868 359.688V362.474C296.868 362.796 296.994 362.894 297.246 362.894H297.68V364H296.896C296.196 364 295.692 363.664 295.692 362.712V362.236C295.468 363.132 294.74 364.14 293.34 364.14ZM292.78 362.39C292.78 362.852 293.102 363.132 293.732 363.132C294.88 363.132 295.692 362.376 295.692 361.396V360.458L293.718 361.382C293.074 361.69 292.78 361.97 292.78 362.39ZM299.893 366.212C298.927 366.212 298.227 365.68 297.933 365.12L298.591 364.196C298.913 364.742 299.263 365.148 299.907 365.148C300.453 365.148 300.817 364.882 301.083 364.056L301.223 363.622L300.467 363.636L298.185 357.224H299.487L300.943 361.578L301.419 363.034L301.895 361.578L303.337 357.224H304.639L302.035 364.56C301.601 365.806 300.845 366.212 299.893 366.212Z" fill="black" fill-opacity="0.5"/>
<path d="M339.156 364.14C337.182 364.14 335.936 362.852 335.642 360.92L336.734 360.206C336.86 361.844 337.588 362.978 339.17 362.978C340.752 362.978 341.228 362.264 341.228 360.122V354.62H342.446V360.332C342.446 363.076 341.466 364.14 339.156 364.14ZM346.538 364.14C345.208 364.14 344.382 363.342 344.382 361.914V357.224H345.586V361.62C345.586 362.488 345.936 363.118 347.084 363.118C348.4 363.118 348.876 362.194 348.876 361.074V357.224H350.08V364H348.876V362.152C348.624 363.216 347.896 364.14 346.538 364.14ZM353.148 364H351.93V357.224H353.148V359.03C353.414 357.98 354.142 357.084 355.472 357.084C356.802 357.084 357.628 357.882 357.628 359.324V364H356.424V359.618C356.424 358.736 356.074 358.12 354.926 358.12C353.624 358.12 353.148 359.03 353.148 360.164V364Z" fill="black" fill-opacity="0.5"/>
<path d="M392.885 364.14C390.911 364.14 389.665 362.852 389.371 360.92L390.463 360.206C390.589 361.844 391.317 362.978 392.899 362.978C394.481 362.978 394.957 362.264 394.957 360.122V354.62H396.175V360.332C396.175 363.076 395.195 364.14 392.885 364.14ZM400.267 364.14C398.937 364.14 398.111 363.342 398.111 361.914V357.224H399.315V361.62C399.315 362.488 399.665 363.118 400.813 363.118C402.129 363.118 402.605 362.194 402.605 361.074V357.224H403.809V364H402.605V362.152C402.353 363.216 401.625 364.14 400.267 364.14ZM406.876 364H405.658V354.62H406.876V364Z" fill="black" fill-opacity="0.5"/>
<path d="M439.744 364H438.456L442.236 354.62H443.454L447.234 364H445.89L444.868 361.382H440.766L439.744 364ZM442.348 357.336L441.186 360.304H444.448L443.286 357.336L442.824 355.866L442.348 357.336ZM450.146 364.14C448.816 364.14 447.99 363.342 447.99 361.914V357.224H449.194V361.62C449.194 362.488 449.544 363.118 450.692 363.118C452.008 363.118 452.484 362.194 452.484 361.074V357.224H453.688V364H452.484V362.152C452.232 363.216 451.504 364.14 450.146 364.14ZM458.102 361.928C457.612 361.928 457.164 361.83 456.786 361.648C456.618 361.872 456.422 362.194 456.422 362.488C456.422 362.852 456.618 363.034 457.318 363.034H459.362C460.594 363.034 461.364 363.524 461.364 364.546C461.364 365.834 460.104 366.744 457.822 366.744C456.086 366.744 454.994 366.17 454.994 365.274C454.994 364.644 455.568 364.266 456.086 364.056C455.652 363.916 455.428 363.594 455.428 363.146C455.428 362.614 455.834 362.026 456.492 361.494C455.82 361.074 455.428 360.36 455.428 359.506C455.428 358.092 456.506 357.084 458.102 357.084C458.55 357.084 458.956 357.168 459.306 357.308L459.726 355.684L460.986 356.132L459.74 357.532C460.384 357.952 460.776 358.666 460.776 359.506C460.776 360.92 459.698 361.928 458.102 361.928ZM458.102 360.99C458.956 360.99 459.6 360.43 459.6 359.506C459.6 358.582 458.956 358.022 458.102 358.022C457.262 358.022 456.604 358.582 456.604 359.506C456.604 360.43 457.262 360.99 458.102 360.99ZM457.822 365.778C459.362 365.778 460.23 365.386 460.23 364.714C460.23 364.28 459.894 364.084 459.208 364.084H456.436C456.212 364.28 455.974 364.574 455.974 364.896C455.974 365.442 456.604 365.778 457.822 365.778Z" fill="black" fill-opacity="0.5"/>
<path d="M496.85 364.14C495.086 364.14 493.476 363.468 492.86 361.732L493.784 360.92C494.218 362.446 495.674 362.992 496.85 362.992C497.9 362.992 498.782 362.586 498.782 361.564C498.782 360.486 497.956 360.22 496.71 359.926L495.828 359.73C494.582 359.45 493.168 358.89 493.168 357.126C493.168 355.418 494.652 354.494 496.29 354.494C497.984 354.494 499.328 355.236 499.902 356.636L498.88 357.448C498.432 356.174 497.48 355.656 496.262 355.656C495.226 355.656 494.456 356.174 494.456 357.042C494.456 357.98 495.142 358.33 496.22 358.596L497.242 358.848C498.572 359.17 500.028 359.688 500.028 361.536C500.028 363.16 498.67 364.14 496.85 364.14ZM504.54 364.14C502.622 364.14 501.292 362.768 501.292 360.612C501.292 358.47 502.608 357.084 504.47 357.084C506.388 357.084 507.55 358.358 507.55 360.346C507.55 360.556 507.522 360.766 507.494 360.892H502.468C502.538 362.32 503.336 363.132 504.54 363.132C505.898 363.132 506.444 362.39 506.71 361.802L507.452 362.642C506.948 363.454 506.01 364.14 504.54 364.14ZM504.47 358.106C503.378 358.106 502.65 358.75 502.496 360.01H506.458C506.332 358.764 505.604 358.106 504.47 358.106ZM510.339 366.604H509.121V357.224H510.339V358.96C510.577 357.938 511.221 357.07 512.523 357.07C514.231 357.07 515.295 358.456 515.295 360.598C515.295 362.74 514.231 364.14 512.523 364.14C511.221 364.14 510.577 363.272 510.339 362.25V366.604ZM510.339 361.088C510.339 362.208 510.815 363.118 512.103 363.118C513.181 363.118 514.063 362.334 514.063 360.598C514.063 358.876 513.181 358.092 512.103 358.092C510.815 358.092 510.339 359.002 510.339 360.122V361.088Z" fill="black" fill-opacity="0.5"/>
<path d="M551.656 364.14C548.954 364.14 547.12 362.026 547.12 359.296C547.12 356.594 548.954 354.48 551.656 354.48C554.372 354.48 556.192 356.594 556.192 359.296C556.192 362.026 554.372 364.14 551.656 364.14ZM551.67 362.978C553.812 362.978 554.932 361.452 554.932 359.296C554.932 357.168 553.812 355.628 551.67 355.628C549.528 355.628 548.408 357.168 548.408 359.296C548.408 361.452 549.528 362.978 551.67 362.978ZM560.685 364.14C558.739 364.14 557.493 362.768 557.493 360.612C557.493 358.47 558.739 357.084 560.685 357.084C562.449 357.084 563.485 358.106 563.807 359.464L562.617 359.954C562.477 358.876 561.917 358.106 560.699 358.106C559.467 358.106 558.725 359.016 558.725 360.612C558.725 362.208 559.467 363.132 560.699 363.132C561.917 363.132 562.477 362.348 562.617 361.27L563.807 361.76C563.485 363.118 562.449 364.14 560.685 364.14ZM567.426 364.154C566.32 364.154 565.536 363.426 565.536 362.264V358.176H564.444V357.224H565.536V356.356L566.754 355.46V357.224H568.98V358.176H566.754V361.9C566.754 362.768 567.16 362.978 567.692 362.978C568.294 362.978 568.714 362.474 568.896 362.054L569.302 363.258C569.008 363.72 568.364 364.154 567.426 364.154Z" fill="black" fill-opacity="0.5"/>
<path d="M602.681 364H601.463V354.62H602.541L606.727 360.584L607.693 362.04L607.623 360.612V354.62H608.841V364H607.749L603.451 357.896L602.611 356.65L602.681 357.896V364ZM613.487 364.14C611.611 364.14 610.295 362.754 610.295 360.612C610.295 358.47 611.611 357.084 613.487 357.084C615.363 357.084 616.693 358.47 616.693 360.612C616.693 362.754 615.363 364.14 613.487 364.14ZM613.487 363.118C614.649 363.118 615.461 362.32 615.461 360.612C615.461 358.89 614.649 358.106 613.487 358.106C612.339 358.106 611.541 358.89 611.541 360.612C611.541 362.32 612.339 363.118 613.487 363.118ZM621.057 364H619.517L617.067 357.224H618.383L619.727 361.242L620.315 363.104L620.889 361.242L622.219 357.224H623.521L621.057 364Z" fill="black" fill-opacity="0.5"/>
<path d="M658.646 364H655.328V354.62H658.646C661.6 354.62 663.07 356.342 663.07 359.31C663.07 362.278 661.6 364 658.646 364ZM658.45 355.698H656.546V362.922H658.45C660.578 362.922 661.81 361.984 661.81 359.31C661.81 356.636 660.578 355.698 658.45 355.698ZM667.628 364.14C665.71 364.14 664.38 362.768 664.38 360.612C664.38 358.47 665.696 357.084 667.558 357.084C669.476 357.084 670.638 358.358 670.638 360.346C670.638 360.556 670.61 360.766 670.582 360.892H665.556C665.626 362.32 666.424 363.132 667.628 363.132C668.986 363.132 669.532 362.39 669.798 361.802L670.54 362.642C670.036 363.454 669.098 364.14 667.628 364.14ZM667.558 358.106C666.466 358.106 665.738 358.75 665.584 360.01H669.546C669.42 358.764 668.692 358.106 667.558 358.106ZM675.133 364.14C673.187 364.14 671.941 362.768 671.941 360.612C671.941 358.47 673.187 357.084 675.133 357.084C676.897 357.084 677.933 358.106 678.255 359.464L677.065 359.954C676.925 358.876 676.365 358.106 675.147 358.106C673.915 358.106 673.173 359.016 673.173 360.612C673.173 362.208 673.915 363.132 675.147 363.132C676.365 363.132 676.925 362.348 677.065 361.27L678.255 361.76C677.933 363.118 676.897 364.14 675.133 364.14Z" fill="black" fill-opacity="0.5"/>
<path d="M712.8 364.14C710.826 364.14 709.58 362.852 709.286 360.92L710.378 360.206C710.504 361.844 711.232 362.978 712.814 362.978C714.396 362.978 714.872 362.264 714.872 360.122V354.62H716.09V360.332C716.09 363.076 715.11 364.14 712.8 364.14ZM719.536 364.14C718.388 364.14 717.744 363.482 717.744 362.586C717.744 361.676 718.43 361.102 719.396 360.668L721.846 359.576C721.804 358.778 721.426 358.19 720.362 358.19C719.396 358.19 718.752 358.75 718.402 359.492L717.576 358.638C717.982 357.938 718.99 357.084 720.502 357.084C722.168 357.084 723.064 358.078 723.064 359.688V362.474C723.064 362.796 723.19 362.894 723.442 362.894H723.876V364H723.092C722.392 364 721.888 363.664 721.888 362.712V362.236C721.664 363.132 720.936 364.14 719.536 364.14ZM718.976 362.39C718.976 362.852 719.298 363.132 719.928 363.132C721.076 363.132 721.888 362.376 721.888 361.396V360.458L719.914 361.382C719.27 361.69 718.976 361.97 718.976 362.39ZM726.504 364H725.286V357.224H726.504V359.03C726.77 357.98 727.498 357.084 728.828 357.084C730.158 357.084 730.984 357.882 730.984 359.324V364H729.78V359.618C729.78 358.736 729.43 358.12 728.282 358.12C726.98 358.12 726.504 359.03 726.504 360.164V364Z" fill="black" fill-opacity="0.5"/>
<rect x="67" y="110.284" width="660" height="1.00332" rx="0.50166" fill="#EBEDF4"/>
<rect x="67" y="161.454" width="660" height="1.00332" rx="0.50166" fill="#EBEDF4"/>
<rect x="67" y="212.623" width="660" height="1.00332" rx="0.50166" fill="#EBEDF4"/>
<rect x="67" y="263.792" width="660" height="1.00332" rx="0.50166" fill="#EBEDF4"/>
<rect x="67" y="314.961" width="660" height="1.00332" rx="0.50166" fill="#EBEDF4"/>
<defs>
<clipPath id="clip0_581_703">
<rect width="12.973" height="12.973" fill="white" transform="translate(707.838 47.5137)"/>
</clipPath>
</defs>
</svg>
